<?xml version="1.0" encoding="UTF-8" standalone="no"?>
<svg width="600" height="500" viewBox="0 0 600 500" xmlns="http://www.w3.org/2000/svg">
    <style>
        text {
            font-family: 'Courier New', monospace;
        }
        .title {
            font-size: 24px;
            font-weight: bold;
        }
        .subtitle {
            font-size: 16px;
        }
        .step-title {
            font-size: 16px;
            font-weight: bold;
        }
        .step-content {
            font-size: 12px;
        }
        .code {
            font-size: 11px;
            font-family: 'Courier New', monospace;
        }
        .step-box {
            fill: white;
            stroke: #3498db;
            stroke-width: 2;
            rx: 5;
            ry: 5;
        }
        .arrow {
            stroke: #2c3e50;
            stroke-width: 1.5;
            fill: none;
            marker-end: url(#arrowhead);
        }
        .code-box {
            fill: #f5f5f5;
            stroke: #bdc3c7;
            stroke-width: 1;
        }
    </style>

    <defs>
        <marker id="arrowhead" markerWidth="10" markerHeight="7" refX="9" refY="3.5" orient="auto">
            <polygon points="0 0, 10 3.5, 0 7" fill="#2c3e50"/>
        </marker>
    </defs>

    <!-- Title -->
    <text x="300" y="40" text-anchor="middle" class="title">Evennia MUD Development Workflow</text>
    <text x="300" y="65" text-anchor="middle" class="subtitle">From installation to gameplay</text>

    <!-- Step 1: Install -->
    <rect x="60" y="100" width="200" height="80" class="step-box"/>
    <text x="160" y="125" text-anchor="middle" class="step-title">1. Install Evennia</text>
    
    <rect x="75" y="135" width="170" height="30" class="code-box"/>
    <text x="85" y="155" class="code">pip install evennia</text>

    <!-- Step 2: Create Game -->
    <rect x="340" y="100" width="200" height="80" class="step-box"/>
    <text x="440" y="125" text-anchor="middle" class="step-title">2. Create Game</text>
    
    <rect x="355" y="135" width="170" height="30" class="code-box"/>
    <text x="365" y="155" class="code">evennia --init mygame</text>

    <!-- Step 3: Initialize DB -->
    <rect x="60" y="220" width="200" height="80" class="step-box"/>
    <text x="160" y="245" text-anchor="middle" class="step-title">3. Initialize Database</text>
    
    <rect x="75" y="255" width="170" height="30" class="code-box"/>
    <text x="85" y="275" class="code">evennia migrate</text>

    <!-- Step 4: Start Server -->
    <rect x="340" y="220" width="200" height="80" class="step-box"/>
    <text x="440" y="245" text-anchor="middle" class="step-title">4. Start the Server</text>
    
    <rect x="355" y="255" width="170" height="30" class="code-box"/>
    <text x="365" y="275" class="code">evennia start</text>

    <!-- Step 5: Create Content -->
    <rect x="60" y="340" width="200" height="120" class="step-box"/>
    <text x="160" y="365" text-anchor="middle" class="step-title">5. Create Game Content</text>
    
    <text x="75" y="390" class="step-content">• Customize typeclasses</text>
    <text x="75" y="410" class="step-content">• Create rooms & objects</text>
    <text x="75" y="430" class="step-content">• Add custom commands</text>
    <text x="75" y="450" class="step-content">• Define game mechanics</text>

    <!-- Step 6: Connect & Play -->
    <rect x="340" y="340" width="200" height="120" class="step-box"/>
    <text x="440" y="365" text-anchor="middle" class="step-title">6. Connect & Play</text>
    
    <text x="355" y="390" class="step-content">• Web: http://localhost:4001</text>
    <text x="355" y="410" class="step-content">• Telnet: localhost:4000</text>
    <text x="355" y="430" class="step-content">• Admin: .../admin/</text>
    <text x="355" y="450" class="step-content">• Test, iterate, improve!</text>

    <!-- Arrows -->
    <path d="M260 140 L340 140" class="arrow"/>
    <path d="M440 180 L440 220" class="arrow"/>
    <path d="M340 260 L260 260" class="arrow"/>
    <path d="M160 300 L160 340" class="arrow"/>
    <path d="M260 400 L340 400" class="arrow"/>
    
    <!-- Development Cycle Arrow -->
    <path d="M440 460 C500 460, 550 300, 440 180" class="arrow" stroke-dasharray="5,5"/>
</svg>