<?xml version="1.0" encoding="UTF-8" standalone="no"?>
<svg width="600" height="500" viewBox="0 0 600 500" xmlns="http://www.w3.org/2000/svg">
    <style>
        text {
            font-family: 'Courier New', monospace;
        }
        .title {
            font-size: 24px;
            font-weight: bold;
        }
        .subtitle {
            font-size: 16px;
        }
        .box-title {
            font-size: 14px;
            font-weight: bold;
        }
        .box-content {
            font-size: 12px;
        }
        .main-box {
            fill: none;
            stroke: #2c3e50;
            stroke-width: 2;
            rx: 5;
            ry: 5;
        }
        .layer-box {
            fill: none;
            stroke: #3498db;
            stroke-width: 2;
            rx: 5;
            ry: 5;
        }
        .component-box {
            fill: none;
            stroke: #2c3e50;
            stroke-width: 1.5;
            rx: 3;
            ry: 3;
        }
        .arrow {
            stroke: #2c3e50;
            stroke-width: 1.5;
            fill: none;
            marker-end: url(#arrowhead);
        }
        .dashed-arrow {
            stroke: #2c3e50;
            stroke-width: 1.5;
            fill: none;
            stroke-dasharray: 5,5;
            marker-end: url(#arrowhead);
        }
    </style>

    <defs>
        <marker id="arrowhead" markerWidth="10" markerHeight="7" refX="9" refY="3.5" orient="auto">
            <polygon points="0 0, 10 3.5, 0 7" fill="#2c3e50"/>
        </marker>
    </defs>

    <!-- Title -->
    <text x="300" y="30" text-anchor="middle" class="title">Evennia Framework Architecture</text>
    <text x="300" y="55" text-anchor="middle" class="subtitle">A Python MUD Development Framework</text>

    <!-- Main Framework Box -->
    <rect x="50" y="80" width="500" height="380" class="main-box"/>
    
    <!-- Server Layer -->
    <rect x="70" y="110" width="460" height="80" class="layer-box"/>
    <text x="300" y="130" text-anchor="middle" class="box-title">Server Layer</text>
    
    <rect x="90" y="140" width="130" height="40" class="component-box"/>
    <text x="155" y="165" text-anchor="middle" class="box-content">Portal Server</text>
    
    <rect x="240" y="140" width="130" height="40" class="component-box"/>
    <text x="305" y="165" text-anchor="middle" class="box-content">Twisted & Django</text>
    
    <rect x="390" y="140" width="130" height="40" class="component-box"/>
    <text x="455" y="165" text-anchor="middle" class="box-content">Web Server</text>

    <!-- Database Layer -->
    <rect x="70" y="200" width="460" height="80" class="layer-box"/>
    <text x="300" y="220" text-anchor="middle" class="box-title">Database Layer</text>
    
    <rect x="90" y="230" width="200" height="40" class="component-box"/>
    <text x="190" y="255" text-anchor="middle" class="box-content">Object-Relational Mapping</text>
    
    <rect x="320" y="230" width="200" height="40" class="component-box"/>
    <text x="420" y="255" text-anchor="middle" class="box-content">Database (SQLite/PostgreSQL)</text>

    <!-- Game Logic Layer -->
    <rect x="70" y="290" width="460" height="160" class="layer-box"/>
    <text x="300" y="310" text-anchor="middle" class="box-title">Game Logic Layer</text>
    
    <rect x="90" y="320" width="130" height="40" class="component-box"/>
    <text x="155" y="345" text-anchor="middle" class="box-content">Typeclasses</text>
    
    <rect x="240" y="320" width="130" height="40" class="component-box"/>
    <text x="305" y="345" text-anchor="middle" class="box-content">Commands</text>
    
    <rect x="390" y="320" width="130" height="40" class="component-box"/>
    <text x="455" y="345" text-anchor="middle" class="box-content">Scripts</text>
    
    <rect x="165" y="380" width="130" height="40" class="component-box"/>
    <text x="230" y="405" text-anchor="middle" class="box-content">Objects</text>
    
    <rect x="315" y="380" width="130" height="40" class="component-box"/>
    <text x="380" y="405" text-anchor="middle" class="box-content">Attributes</text>

    <!-- Connections -->
    <path d="M155 180 L155 230" class="arrow" />
    <path d="M305 180 L305 230" class="arrow" />
    <path d="M455 180 L455 230" class="arrow" />
    
    <path d="M190 270 L190 320" class="arrow" />
    <path d="M420 270 L420 320" class="arrow" />
    
    <path d="M155 360 L230 380" class="arrow" />
    <path d="M305 360 L380 380" class="arrow" />
    <path d="M455 360 L380 380" class="dashed-arrow" />
    
    <!-- Legend -->
    <rect x="70" y="470" width="15" height="15" class="main-box"/>
    <text x="95" y="483" class="box-content">Evennia Framework</text>
    
    <rect x="220" y="470" width="15" height="15" class="layer-box"/>
    <text x="245" y="483" class="box-content">Architectural Layer</text>
    
    <rect x="370" y="470" width="15" height="15" class="component-box"/>
    <text x="395" y="483" class="box-content">Component</text>
    
    <line x1="490" y1="470" x2="505" y2="485" class="arrow"/>
    <text x="515" y="483" class="box-content">Data Flow</text>
</svg>